<svg xmlns="http://www.w3.org/2000/svg" viewBox="0 0 512 512"><path d="M188.12 182.6a24 24 0 1 0-24.05-24A24.08 24.08 0 0 0 188.12 182.6zm0-44.9a20.85 20.85 0 1 1-20.85 20.85A20.87 20.87 0 0 1 188.12 137.7zM319.49 182.6a24 24 0 1 0-24.05-24A24.08 24.08 0 0 0 319.49 182.6zm0-44.9a20.85 20.85 0 1 1-20.85 20.85A20.87 20.87 0 0 1 319.49 137.7zM254.56 182.29a24 24 0 1 0-24-24A24 24 0 0 0 254.56 182.29zm0-44.91a21 21 0 1 1-21 21A21 21 0 0 1 254.56 137.38zM121.93 182.29a24 24 0 1 0-24-24A24 24 0 0 0 121.93 182.29zm0-44.91a21 21 0 1 1-21 21A21 21 0 0 1 121.93 137.38zM455.27 228l-37.36-29c-9.71-7.53-17.84-11.89-30.66-11.89h-3c-12.82 0-20.95 4.36-30.66 11.89l-1.1.85-.92-.71c-9.72-7.54-17.87-11.91-30.72-11.91h-3c-12.85 0-21 4.37-30.72 11.91l-.17.13-.34-.27c-9.71-7.53-17.84-11.89-30.66-11.89h-3c-12.82 0-21 4.36-30.66 11.89l-1.1.85-.91-.71c-9.73-7.54-17.88-11.91-30.73-11.91h-3c-12.85 0-21 4.37-30.72 11.91l-.79.62-1-.76c-9.71-7.53-17.84-11.89-30.66-11.89h-3.05c-12.82 0-20.95 4.36-30.66 11.89L52.19 228a6.37 6.37 0 0 0 6.47 10.87l38.17-16.74-.34 1.21c-11.87 41.31-32.11 78.2-32.31 78.56a1.5 1.5 0 0 0 1.31 2.23H97.38l10.47 70.44a1.51 1.51 0 0 0 1.49 1.28h22.53a1.5 1.5 0 0 0 1.48-1.28l10.43-70.12h19.7l10.46 70.35a1.6 1.6 0 0 0 1.58 1.37h22.54a1.6 1.6 0 0 0 1.58-1.37L210.1 304.4h20l10.43 70.12A1.5 1.5 0 0 0 242 375.8h22.53a1.5 1.5 0 0 0 1.49-1.28L276.4 304.4h18.45l10.46 70.35a1.6 1.6 0 0 0 1.58 1.37h22.53a1.6 1.6 0 0 0 1.59-1.37l10.46-70.35h19.95l10.43 70.12a1.5 1.5 0 0 0 1.48 1.28h22.53a1.5 1.5 0 0 0 1.49-1.28l10.47-70.44H442a1.5 1.5 0 0 0 1.31-2.23c-.21-.38-20.81-38-32.65-79.77l38.18 16.74A6.37 6.37 0 0 0 455.27 228zM317.77 190.4h3c11.93 0 19.58 4.12 28.76 11.24l.27.21L320 225 289.5 201.27C298.46 194.38 306.05 190.4 317.77 190.4zM157.64 201.64c9.18-7.12 16.83-11.24 28.76-11.24h3c11.94 0 19.58 4.12 28.76 11.24l.27.21-30.42 23.59L157.5 201.75zm39 171.28H176.9l-10.23-68.84H178a1.5 1.5 0 0 0 1.31-2.23 443.07 443.07 0 0 1-22.77-50.2c2.63-7 5.2-14.35 7.52-21.94l20.77 9.11a10.72 10.72 0 0 0 6.47 0l20.55-9c2.36 7.67 4.95 15.12 7.62 22.17a442.85 442.85 0 0 1-22.65 49.87 1.5 1.5 0 0 0 1.32 2.23h8.79zm-50-150.84l14.46 6.34c-2 6.41-4.09 12.66-6.29 18.66C151.88 239.11 149.07 230.69 146.64 222.08zm74.52 25.34c-2.24-6.08-4.4-12.41-6.38-18.9l14.68-6.44C227 230.81 224.13 239.35 221.16 247.42zm106.89 125.5H308.27L298 304.08H310.6a1.5 1.5 0 0 0 1.31-2.23A444.9 444.9 0 0 1 288.51 250c2.48-6.63 4.87-13.6 7.05-20.75l21.88 9.59a6.54 6.54 0 0 0 2.1.52H320c.17 0 .34 0 .58 0a6.37 6.37 0 0 0 2-.51l20.55-9c2.35 7.67 4.95 15.12 7.62 22.17a442.85 442.85 0 0 1-22.65 49.87 1.5 1.5 0 0 0 1.32 2.23h8.79zM279.26 222.08l13.36 5.86c-1.81 6-3.78 11.79-5.82 17.42C284.11 237.91 281.52 230.07 279.26 222.08zm73.27 25.34c-2.24-6.08-4.4-12.41-6.39-18.9l14.69-6.44C358.35 230.81 355.5 239.35 352.53 247.42zm100.68-11.61a3.32 3.32 0 0 1-3.2.26l-41.07-18a1.5 1.5 0 0 0-2.05 1.77c10.18 37.51 27.85 72.28 32.58 81.25H406.53a1.5 1.5 0 0 0-1.49 1.28L394.57 372.8H374.63l-10.48-70.44a1.5 1.5 0 0 0-1.48-1.28H332c4.73-9 22.4-43.74 32.57-81.25a1.5 1.5 0 0 0-2.05-1.77l-41.07 18a3.18 3.18 0 0 1-1.11.27 1.43 1.43 0 0 1-.3 0 1.7 1.7 0 0 1-.31 0 3.24 3.24 0 0 1-1.08-.27l-41.07-18a1.5 1.5 0 0 0-1.58.24 1.52 1.52 0 0 0-.47 1.53c10.18 37.51 27.85 72.28 32.58 81.25H275.16a1.5 1.5 0 0 0-1.49 1.28L263.2 372.8H243.26l-10.48-70.44a1.5 1.5 0 0 0-1.48-1.28H200.62c4.73-9 22.4-43.74 32.57-81.25a1.5 1.5 0 0 0-2.05-1.77l-41.06 18a3.25 3.25 0 0 1-1.82.25 1.48 1.48 0 0 0-.42 0 3.25 3.25 0 0 1-1.82-.25l-41.07-18a1.5 1.5 0 0 0-2 1.77c10.17 37.51 27.84 72.28 32.57 81.25H142.53a1.5 1.5 0 0 0-1.48 1.28L130.58 372.8h-20l-10.47-70.44a1.5 1.5 0 0 0-1.49-1.28H68c4.55-8.63 21.08-41.14 31.37-77 .21-.71.41-1.42.61-2.14l.59-2.14a1.5 1.5 0 0 0-2-1.77l-41.07 18A3.37 3.37 0 0 1 54 230.32l37.36-29c9.2-7.14 16.86-11.27 28.82-11.27h3.05c12 0 19.62 4.13 28.82 11.27l35 27.18a1.53 1.53 0 0 0 1.84 0l35-27.18c9.2-7.14 16.87-11.27 28.83-11.27h3c12 0 19.63 4.13 28.82 11.27L319.12 228a1.5 1.5 0 0 0 1.84 0l34.42-26.69c9.2-7.14 16.87-11.27 28.83-11.27h3c12 0 19.63 4.13 28.82 11.27l37.36 29h0a3.37 3.37 0 0 1-.22 5.49zM385.92 182.29a24 24 0 1 0-23.95-24A24 24 0 0 0 385.92 182.29zm0-44.91a21 21 0 1 1-20.95 21A21 21 0 0 1 385.92 137.38z"/></svg>