<svg xmlns="http://www.w3.org/2000/svg" viewBox="0 0 512 512"><path d="M405.21,294.78c-.67-.09-61.43-8-102.84,14.12a205.89,205.89,0,0,0,10.26-45.35h-.07l5.86-8.23a51.85,51.85,0,0,0,9.48-34.21l-.25-3.16,2.47,2.81a51.92,51.92,0,0,0,30.36,16.88l11.23,1.87a1,1,0,0,0,.24,0,1.49,1.49,0,0,0,1.48-1.75L371.63,227a51.83,51.83,0,0,0-17.49-30.89L351.71,194l4,.25a52,52,0,0,0,33.4-9.53l9.26-6.62a1.5,1.5,0,0,0,0-2.44l-8.9-6.35a51.83,51.83,0,0,0-34.21-9.47l-3.45.27,3-2.67a51.92,51.92,0,0,0,16.88-30.35l1.87-11.23a1.51,1.51,0,0,0-.42-1.31,1.48,1.48,0,0,0-1.31-.42L361.08,116a51.88,51.88,0,0,0-30.89,17.49l-2.32,2.73.27-3.43a51.87,51.87,0,0,0-9.47-34.22l-6.36-8.9a1.56,1.56,0,0,0-2.44,0l-6.61,9.27a52,52,0,0,0-9.54,33.39L294,136l-2.12-2.49A51.94,51.94,0,0,0,260.94,116l-10.78-1.8a1.5,1.5,0,0,0-1.73,1.73l1.88,11.23a52,52,0,0,0,16.87,30.35l2.77,2.44-3.53-.29a51.85,51.85,0,0,0-34.21,9.48l-8.9,6.35a1.5,1.5,0,0,0,0,2.44l9.27,6.62A51.94,51.94,0,0,0,266,194.05l3.94-.25-2.71,2.31A51.83,51.83,0,0,0,249.71,227l-1.8,10.78a1.48,1.48,0,0,0,.42,1.31,1.46,1.46,0,0,0,1.06.44,1,1,0,0,0,.24,0l11.23-1.87a51.92,51.92,0,0,0,30.36-16.88l2.5-2.84-.24,3.64A52,52,0,0,0,303,255l6.35,8.9a203.67,203.67,0,0,1-8.61,39.81A39.38,39.38,0,0,0,271.71,261a1.6,1.6,0,0,0-1.21.16,1.62,1.62,0,0,0-.74,1,39.37,39.37,0,0,0,28,48,1.22,1.22,0,0,0,.69,0l-.45,1.18a79.09,79.09,0,0,0-7.27,5c-12.3,9.52-40.66,25.19-92.81,24-2.87-14-6.06-25.08-9.48-32.81-9.17-20.69-28.1-63.45-28.53-99.83h9.45a26.17,26.17,0,0,0,26.14-26.13V126.2a26.17,26.17,0,0,0-26.14-26.13H137.61a29.38,29.38,0,0,0-29.34,29.34V397.93a20.57,20.57,0,0,0,20.55,20.55H405a1.5,1.5,0,0,0,1.5-1.5V296.27A1.5,1.5,0,0,0,405.21,294.78ZM297,306.65a36.19,36.19,0,0,1-24.56-42.1A36.19,36.19,0,0,1,297,306.65Zm55.16-108.26a48.86,48.86,0,0,1,16.48,29.1l1.46,8.72L361,234.68a48.93,48.93,0,0,1-28.59-15.9L327.32,213l-.06.05-1.66-20.72,21.11,1.35Zm-19.72-63a48.86,48.86,0,0,1,29.1-16.48l8.72-1.46-1.53,9.16a49,49,0,0,1-15.9,28.6l-6.05,5.32-21,1.68,1.67-20.94Zm-63.31,19.82a48.94,48.94,0,0,1-15.89-28.6l-1.53-9.16,8.71,1.46a48.83,48.83,0,0,1,29.1,16.48l4.73,5.54,1.34,21L275,160.31ZM289,218.78a48.93,48.93,0,0,1-28.59,15.9l-9.16,1.53,1.46-8.72a48.86,48.86,0,0,1,16.48-29.1l5.76-4.91,20.45-1.31L294,213Zm7.52,3,2-31.09a1.48,1.48,0,0,0-1.49-1.59h-.1l-31.09,2a49,49,0,0,1-31.46-9l-7.56-5.4,7.19-5.13a48.9,48.9,0,0,1,32.24-8.93l30.92,2.47a1.46,1.46,0,0,0,.55-.06,17.49,17.49,0,1,0,1-1,1.47,1.47,0,0,0,.08-.55l-2-31.39a48.89,48.89,0,0,1,9-31.46l5.39-7.55,5.14,7.19a48.93,48.93,0,0,1,8.92,32.23l-2.49,31.23a1.49,1.49,0,0,0,1.61,1.61l31.23-2.49a48.81,48.81,0,0,1,32.23,8.92l7.19,5.13-7.56,5.4a48.91,48.91,0,0,1-31.46,9l-31.84-2a1.52,1.52,0,0,0-1.16.45,1.5,1.5,0,0,0-.43,1.17l2.44,30.47A48.88,48.88,0,0,1,316,253.58l-5.13,7.19-5.39-7.56A48.85,48.85,0,0,1,296.48,221.75Zm13.87-59.28A14.35,14.35,0,1,1,296,176.81,14.35,14.35,0,0,1,310.35,162.47Zm93.15,253H128.82a17.58,17.58,0,0,1-17.55-17.55V129.41a26.37,26.37,0,0,1,26.34-26.34h31.78a23.16,23.16,0,0,1,23.14,23.13v55.37a23.16,23.16,0,0,1-23.14,23.13h-11a1.5,1.5,0,0,0-1.5,1.5c-.09,37.33,19.42,81.38,28.79,102.55,3.43,7.74,6.64,19,9.53,33.36a1.5,1.5,0,0,0,1.43,1.2c53.85,1.54,83.21-14.73,95.91-24.56q1.73-1.33,3.53-2.57c-13.95,33.57-40.24,65.95-88.72,83.36l1.08,3c28.21-10.13,49-25.21,64.4-42.65a1.39,1.39,0,0,0,.34.24,39.33,39.33,0,0,0,53.13-16.44,1.6,1.6,0,0,0-.66-2.17,39.42,39.42,0,0,0-40.55,2.31,159.88,159.88,0,0,0,15.62-30.6C338,291.32,394.27,296.55,403.5,297.6Zm-80.77-71.85A36.12,36.12,0,0,1,276.17,358,36.2,36.2,0,0,1,322.73,343.63Z"/></svg>