<svg xmlns="http://www.w3.org/2000/svg" viewBox="0 0 512 512"><path d="M360.52,317.87,303.7,298.11V281.89h45.72a1.5,1.5,0,0,0,1.24-2.34c-30.64-45-27.43-150.17-27.4-151.23h-.37V77.89h25.62a17.22,17.22,0,0,0,17.19-17.2,1.5,1.5,0,0,0-1.5-1.5H147.8a1.5,1.5,0,0,0-1.5,1.5,17.22,17.22,0,0,0,17.19,17.2H167v44.82a9.88,9.88,0,0,0-8.37,9.74V178h3V132.45a6.88,6.88,0,0,1,5.37-6.7V178h3V125.75a6.89,6.89,0,0,1,5.37,6.7V178h3V132.45a9.88,9.88,0,0,0-8.37-9.74V77.89h19.11v63.34c0,1.39,0,2.78,0,4.17-.47,31.85-4.3,100.14-27.45,134.15a1.5,1.5,0,0,0,1.24,2.34H208.3v16.22l-56.82,19.76a53.38,53.38,0,0,0-35.81,50.38v9.06a1.5,1.5,0,0,0,.8,1.32l138.83,74a1.46,1.46,0,0,0,.7.18,1.5,1.5,0,0,0,.71-.18l37.37-19.92-4,8.56a1.5,1.5,0,0,0,1.95,2l11-4.71L306.46,450a1.51,1.51,0,0,0,1.33,1.06h.1a1.48,1.48,0,0,0,1.36-.87l14-30.06,14,30.06a1.49,1.49,0,0,0,1.46.87A1.51,1.51,0,0,0,340,450l3.45-11.42,11,4.71a1.5,1.5,0,0,0,1.95-2l-4.85-10.42L340.81,407.8l54.73-29.17a1.51,1.51,0,0,0,.79-1.32v-9.06A53.38,53.38,0,0,0,360.52,317.87Zm-13.88-39H292.4V254.15a1.55,1.55,0,0,0,.21-.35l12.13-27.22A208.69,208.69,0,0,0,321,169.23c.32,5.7.76,11.75,1.34,18C326.22,228.63,334.38,259.45,346.64,278.89ZM192.15,129.77h6.4C214,142.72,249.69,165.46,317,175.68a206.13,206.13,0,0,1-15,49.68l-11.73,26.33H221.73L210,225.36a205.55,205.55,0,0,1-17.83-79.28C192.29,138.16,192.21,132.38,192.15,129.77Zm127.74,11.46c0,1.57,0,3.15-.06,4.72l-.06,1.92c0,.85-.06,1.7-.1,2.55a206,206,0,0,1-2.2,22.3c-62.77-9.52-97.58-30-114.15-42.95H319.89ZM222.6,254.69h66.8v24.2H274.78A20.32,20.32,0,0,0,256,291.52a20.32,20.32,0,0,0-18.78-12.63H222.6Zm-32-179.8H163.49a14.23,14.23,0,0,1-14.12-12.7H362.63a14.23,14.23,0,0,1-14.12,12.7H321.39a1.5,1.5,0,0,0-1.5,1.5v50.38H192.11V76.39A1.5,1.5,0,0,0,190.61,74.89ZM190,187.24c.52-5.6.92-11,1.23-16.18a208.32,208.32,0,0,0,16,55.52l12.13,27.22a1.55,1.55,0,0,0,.21.35v24.74H165.73C178,259.45,186.15,228.63,190,187.24ZM308.19,445.35l-2.79-9.26a1.51,1.51,0,0,0-.81-.92A1.38,1.38,0,0,0,304,435a1.52,1.52,0,0,0-.59.12L294.48,439l20.13-43.25h0l10-21.48h0l15.58-33.5,8.64,13.55a3.44,3.44,0,0,1,.22,3.29l-17.17,36.87h0l-12.67,27.22h0Zm19.86-85.63h0l-4.8,10.33-6-12.79H329.2Zm2.54-5.46H315.9l-7-15.13h28.77Zm-9,19.34-8.34,17.93-15.81-33.95a3.44,3.44,0,0,1,.22-3.29l8.64-13.55ZM352,439l-8.89-3.82a1.45,1.45,0,0,0-1.22,0,1.46,1.46,0,0,0-.8.92l-2.8,9.26-13.4-28.78,8.34-17.93Zm41.32-62.56-53.78,28.67-4.65-10,1.35-2.9h0l15.52-33.35a6.42,6.42,0,0,0-.41-6.17l-10.11-15.85a1.48,1.48,0,0,0-1.36-.69l-.2,0v0H306.8v0l-.2,0a1.47,1.47,0,0,0-1.36.69l-10.11,15.85a6.42,6.42,0,0,0-.41,6.17l16.87,36.25-10.88,23.37h0l-4.52,9.73L256,449.61l-137.33-73.2v-8.16a50.38,50.38,0,0,1,33.8-47.55l57.82-20.11a1.49,1.49,0,0,0,1-1.41V281.89h25.92a17.31,17.31,0,0,1,17.28,17.29,1.5,1.5,0,1,0,3,0,17.31,17.31,0,0,1,17.28-17.29H300.7v17.29a1.49,1.49,0,0,0,1,1.41l57.82,20.11a50.38,50.38,0,0,1,33.8,47.55Z"/></svg>

