<?xml version="1.0" ?><!DOCTYPE svg  PUBLIC '-//W3C//DTD SVG 1.1//EN'  'http://www.w3.org/Graphics/SVG/1.1/DTD/svg11.dtd'><svg height="512px" style="enable-background:new 0 0 512 512;" version="1.1" viewBox="0 0 512 512" width="512px" xml:space="preserve" xmlns="http://www.w3.org/2000/svg" xmlns:xlink="http://www.w3.org/1999/xlink"><g id="_x32_45_x2C__abilities_x2C__development_x2C__Female_x2C__global_x2C__online_x2C_"><g><path d="M194.41,110.377c4.159,1.766,8.507,3.152,12.996,4.16    c5.282,1.16,10.837,1.789,16.562,1.789c16.298,0,31.399-5.117,43.763-13.814l0.189-0.15c4.299-3.051,8.269-6.529,11.848-10.361    l0.015-0.025l0.035-0.051l0.102-0.101c3.492-3.807,6.629-7.966,9.314-12.429c2.158-3.579,4.021-7.311,5.559-11.218    c-7.096-2.975-14.747-4.94-22.752-5.647h-0.176l-0.263-0.025h-0.039l-0.214-0.024l-0.267-0.025l0,0l-0.969-0.05l-0.088-0.025    h-0.267l-0.126-0.025h-0.127l-0.263-0.025h-0.102h-0.162l-0.267-0.025h-0.049h-0.214h-0.268h-0.01l-0.253-0.025h-0.229h-0.049    h-0.253l-0.189-0.025h-0.088h-0.263h-0.141h-0.126h-0.264h-0.102h-0.165l-0.277-0.024h-0.035h-0.228h-0.264l-0.772,0.024h-0.214    h-0.54h-0.442l-0.315,0.025l-0.667,0.025h-0.102l-0.755,0.025h-0.112l-0.632,0.051l-0.341,0.025l-0.417,0.025l-0.555,0.024    l-0.2,0.025l-0.744,0.05h-0.024l-0.72,0.076l-0.238,0.025l-0.505,0.051l-0.453,0.05l-0.291,0.025l-0.667,0.101h-0.077    l-0.098,0.025l-1.716,0.227l-0.39,0.076l-0.554,0.075l-0.165,0.024l-0.73,0.127l-0.049,0.025h-0.077    c-1.172,0.201-2.33,0.453-3.478,0.705l-0.165,0.051c-14.119,3.252-26.735,10.438-36.643,20.344    C204.104,91.848,198.277,100.621,194.41,110.377 M282.341,98.579c-3.303,3.302-6.872,6.327-10.69,9.025l-0.189,0.126    c-13.448,9.479-29.834,15.051-47.494,15.051c-6.125,0-12.14-0.682-17.948-1.967c-4.741-1.059-9.328-2.521-13.729-4.336    c-2.078,6.932-3.201,14.293-3.201,21.906c0,21.025,8.535,40.059,22.31,53.848c13.778,13.765,32.825,22.311,53.85,22.311    c21.022,0,40.058-8.546,53.833-22.311c13.777-13.789,22.31-32.822,22.31-53.848c0-5.798-0.653-11.42-1.878-16.84h-0.01    c-11.484,0-22.402-2.344-32.334-6.555C297.905,111.059,289.5,105.461,282.341,98.579z M251.359,456.051    c-0.039-3.329,1.6-5.044,4.966-8.597c1.372-1.463,3.124-3.303,5.155-5.749c1.085-1.335,2.545-0.982,2.155-1.311    c-1.4-1.134-11.595,2.017-15.277,3.151l-2.271,0.705c-4.839,1.563-12.402,3.983-16.989,0.605c-3.404-2.495-3.857-5.42-4.324-8.545    c-0.481-3.101-0.997-6.53-8.813-8.799c-4.169-1.211-7.17-2.823-9.879-4.286c-3.302-1.739-6.103-3.252-10.363-3.075    c4.639,6.883,10.272,13.06,16.702,18.276l0.34,0.303l0.063,0.052l0.418,0.327l0.312,0.252l0.102,0.075    c0.846,0.656,1.677,1.286,2.534,1.892l0.428,0.327l0.165,0.101l0.263,0.202l0.442,0.302l0.112,0.075l0.33,0.229l0.428,0.302    l0.074,0.051l0.365,0.227l0.442,0.303l0.024,0.025l0.428,0.277l0.432,0.277h0.011l0.442,0.277l0.39,0.251l0.053,0.025l0.453,0.277    l0.351,0.227l0.102,0.051l0.442,0.277l0.326,0.202l0.126,0.075l0.467,0.253l0.292,0.175l0.161,0.103l0.457,0.252l0.252,0.151    l0.214,0.1l0.453,0.253l0.228,0.126l0.239,0.126l0.467,0.252l0.189,0.101l0.288,0.152l0.467,0.251l0.141,0.076l0.326,0.151    l0.478,0.251l0.102,0.051l0.365,0.178l0.481,0.226l0.063,0.025l0.414,0.201l0.48,0.228l0.025,0.025l0.453,0.202l0.467,0.201    l0.024,0.024l0.481,0.202l0.428,0.202l0.063,0.024l0.491,0.202l0.379,0.177l0.099,0.051l0.505,0.201l0.34,0.125l0.14,0.077    l0.502,0.201l0.302,0.101l0.189,0.076l0.505,0.201l0.263,0.101l0.229,0.102l0.505,0.176l0.225,0.076l0.277,0.101l0.505,0.177    l0.176,0.076l0.33,0.1l0.502,0.178l0.141,0.049l0.365,0.127l0.516,0.177l0.102,0.024l0.404,0.127l0.516,0.176h0.053l0.463,0.152    l0.52,0.15h0.01l0.505,0.151l0.478,0.15h0.039l0.516,0.151l0.442,0.126l0.077,0.026l0.53,0.125l0.4,0.102l0.116,0.025l0.53,0.151    l0.526,0.126l0.53,0.125l0.316,0.075l0.203,0.052l0.527,0.101l0.277,0.076l0.267,0.049l0.53,0.103l0.53,0.126l0.541,0.1    l0.53,0.103l0.541,0.1l0.544,0.101L251.359,456.051z M184.818,350.221c0.983,0.176,2.029,0.327,3.138,0.428h0.088    c2.421,0.252,5.078,0.379,8.005,0.379c3.945,0,9.602,0.555,14.066,2.723c3.565,1.739,6.376,4.486,7.247,8.697    c0.442,2.143-0.126,4.639-0.793,7.512c-1.147,4.967-2.66,11.496,1.952,16.135c3.481,3.479,5.232,2.444,7.437,1.109    c1.502-0.883,3.141-1.866,5.257-2.521c5.043-1.563,8.623-1.235,11.75-0.933c4.106,0.403,7.223,0.706,13.459-7.563    c3.277-4.336,4.79-5.293,6.468-6.377c0.793-0.505,1.649-1.06,2.977-2.396c3.579-3.604-1.264-14.42-4.692-22.083    c-1.12-2.496-2.103-4.715-2.685-6.404c-4.966-14.494-4.787-14.696,1.589-21.402c1.373-1.462,3.128-3.303,5.156-5.748    c1.095-1.336,2.544-0.982,2.154-1.311c-1.4-1.16-11.658,2.018-15.301,3.151l-2.548,0.781c-4.159,1.286-7.978,2.471-11.217,2.144    c-5.117-0.479-8.107-3.707-7.3-12.807l0.028-0.303c0.263-2.244,0.453-4.26,0.541-6.025l0.024-0.58    c-2.758,1.211-5.443,2.572-8.04,4.059l-0.039,0.025l-1.464,0.857l-0.238,0.151l-0.239,0.126l-0.481,0.303l-0.137,0.101    l-0.34,0.202l-0.467,0.303l-0.049,0.024l-0.432,0.277l-1.246,0.832l-0.165,0.101l-0.453,0.328l-0.229,0.15l-0.817,0.555    l-0.34,0.253l-0.453,0.327l-0.028,0.025l-0.428,0.303l-0.379,0.303l-0.074,0.051l-0.453,0.327l-0.277,0.228l-0.165,0.125    l-0.442,0.328l-0.175,0.151l-0.263,0.202l-0.442,0.353l-0.087,0.075l-0.34,0.277l-0.428,0.354h-0.014l-0.442,0.377l-0.326,0.278    l-0.102,0.075l-0.428,0.354l-0.229,0.227l-0.186,0.151l-0.417,0.378l-0.151,0.126l-0.277,0.228l-0.417,0.377l-0.063,0.051    l-0.351,0.328l-0.379,0.353l-0.025,0.051l-0.403,0.378l-0.302,0.277l-0.116,0.102l-0.4,0.402l-0.404,0.379l-0.393,0.402    l-0.126,0.102l-0.277,0.277l-0.404,0.403l-0.024,0.05l-0.351,0.354l-0.354,0.354l-0.039,0.075l-0.389,0.403l-0.379,0.403    l-0.379,0.403l-0.375,0.429l-0.379,0.403l-0.102,0.101l-0.277,0.328l-0.754,0.882l-0.277,0.328l-0.102,0.126l-0.379,0.429    l-0.151,0.201l-0.2,0.252l-0.379,0.454l-0.354,0.454l-0.34,0.402l-0.011,0.051l-0.354,0.454l-0.252,0.303l-0.099,0.151    l-0.354,0.453l-0.151,0.202l-0.2,0.252l-0.341,0.479l-0.063,0.075l-0.277,0.378l-0.305,0.428l-0.035,0.052l-0.33,0.479    l-0.34,0.479l-0.326,0.479l-0.112,0.176l-0.204,0.303l-0.316,0.479l-0.049,0.05l-0.277,0.429l-0.263,0.429l-0.039,0.076    l-0.33,0.479l-0.175,0.277l-0.126,0.202l-0.302,0.504l-0.102,0.177l-0.2,0.327l-0.292,0.479l-0.024,0.051l-0.263,0.453    l-0.253,0.403l-0.053,0.101l-0.277,0.504l-0.162,0.277l-0.126,0.227l-0.277,0.53l-0.087,0.151l-0.204,0.354l-0.263,0.504    l-0.014,0.024l-0.253,0.505l-0.214,0.402l-0.063,0.102l-0.253,0.529l-0.137,0.277l-0.126,0.252l-0.252,0.504l-0.063,0.151    l-0.2,0.378l-0.242,0.529l0,0l-0.239,0.53l-0.176,0.403l-0.077,0.126l-0.225,0.555l-0.126,0.252l-0.112,0.277l-0.242,0.529    l-0.049,0.126l-0.175,0.429l-0.204,0.504l-0.024,0.025l-0.214,0.555l-0.14,0.378l-0.074,0.151l-0.214,0.555l-0.087,0.253    l-0.126,0.302l-0.204,0.555l-0.024,0.101l-0.351,0.958l-0.014,0.05l-0.291,0.832l-0.025,0.076l-0.074,0.201l-0.179,0.555    l-0.074,0.228l-0.277,0.907l-0.024,0.076l-0.155,0.479l-0.151,0.504l-0.024,0.076L184.818,350.221z M332.87,324.154    c-0.716-0.984-1.449-1.941-2.204-2.899l-0.076-0.076l-0.303-0.403c-1.814-2.219-3.755-4.361-5.783-6.402l-0.077-0.076    c-0.934-0.933-1.878-1.84-2.86-2.723l-0.039-0.025c-5.355-4.865-11.356-9.075-17.835-12.428l-0.982,2.269    c-1.036,2.067-2.661,4.21-4.401,6.504c-3.492,4.589-7.511,9.907-5.633,13.487l0.049,0.075c2.358,4.235,9.493,4.538,16.717,4.841    c10.258,0.428,20.67,0.882,23.935,11.168l0.112,0.428c0.441,2.143-0.137,4.613-0.804,7.513c-1.138,4.94-2.66,11.495,1.965,16.109    c3.478,3.503,5.219,2.444,7.437,1.134c1.499-0.908,3.127-1.891,5.244-2.546l0.529-0.151c-0.744-4.537-1.839-8.949-3.277-13.234    l0,0l-0.341-0.958l-0.063-0.202l-0.277-0.756l-0.15-0.404l-0.2-0.555l-0.015-0.025l-0.213-0.579l-0.141-0.353l-0.088-0.202    l-0.225-0.579l-0.063-0.152l-0.165-0.403l-0.229-0.554l-0.01-0.025l-0.242-0.555l-0.15-0.354l-0.088-0.201l-0.253-0.555    l-0.063-0.15l-0.186-0.404l-0.242-0.529l-0.011-0.025l-0.253-0.555l-0.165-0.328l-0.099-0.227l-0.266-0.529l-0.074-0.15    l-0.203-0.404l-0.253-0.504l-0.024-0.025l-0.277-0.555l-0.165-0.328l-0.112-0.201l-0.291-0.529l-0.074-0.151l-0.214-0.378    l-0.267-0.504l-0.025-0.025l-0.301-0.529l-0.176-0.328l-0.116-0.201l-0.312-0.529l-0.078-0.127l-0.228-0.402l-0.288-0.479    l-0.024-0.025l-0.315-0.529c-0.418-0.681-0.857-1.361-1.299-2.042l-0.326-0.504C334.271,326.12,333.579,325.111,332.87,324.154z     M342.101,406.715c-0.341-0.303-0.744-0.58-1.2-0.857c-1.222-0.756-2.875-1.487-5.054-2.118c-4.173-1.209-7.185-2.823-9.894-4.259    c-4.387-2.346-7.918-4.236-15.15-2.346c-2.66,0.707-4.022,1.235-4.377,1.892c-0.364,0.654-0.137,2.193,0.418,4.664    c0.982,4.336,0.958,9.074,0.277,13.688c-0.769,5.193-2.369,10.312-4.373,14.647l-0.038,0.075    c-1.036,2.068-2.661,4.235-4.401,6.504c-3.492,4.613-7.511,9.907-5.633,13.513l0.253,0.402l0,0l0.137-0.049l0.885-0.328    l0.073-0.025l0.947-0.354h0.011l0.506-0.176l0.452-0.202h0.05l0.895-0.379l0.116-0.024l0.817-0.353l0.179-0.075l0.502-0.228    l0.267-0.101c1.235-0.555,2.457-1.109,3.668-1.715l0.01-0.024l0.909-0.429l0.049-0.025l0.481-0.252l0.365-0.202l0.112-0.05    l1.425-0.782l0.238-0.125l0.229-0.126l1.399-0.808l0.138-0.075l1.249-0.757l0.453-0.303h0.014l0.439-0.277l0.417-0.251    l0.038-0.025l0.808-0.529l0.099-0.076l0.441-0.276l0.303-0.202l0.15-0.102l0.442-0.302l0.239-0.178l0.203-0.15l0.438-0.302    l0.179-0.127l0.25-0.177l0.441-0.327l0.127-0.076l0.301-0.227l0.429-0.327l0.077-0.051l0.783-0.605h0.024l0.403-0.302l0.39-0.303    l0.038-0.052l0.414-0.326l0.33-0.253l0.088-0.075l0.414-0.353l0.277-0.228l0.141-0.101l0.403-0.353l0.229-0.178l0.186-0.15    l0.403-0.353l0.18-0.151l0.225-0.202l0.403-0.353l0.116-0.102l0.287-0.252l0.404-0.354l0.063-0.075l0.326-0.302l0.394-0.353    l0.011-0.025l0.379-0.354l0.354-0.328l0.035-0.025l0.394-0.377l0.301-0.304l0.088-0.075l0.379-0.377l0.239-0.253l0.14-0.126    l0.376-0.378l0.189-0.202l0.189-0.201l0.379-0.379l0.126-0.151l0.239-0.252l0.365-0.378l0.087-0.101l0.292-0.303l0.351-0.403    l0.039-0.025l0.33-0.353l0.34-0.403h0.025l0.35-0.403l0.292-0.353l0.063-0.076l0.351-0.403l0.242-0.277l0.099-0.126l0.354-0.404    l0.189-0.226l0.151-0.202l0.341-0.428l0.137-0.152l0.203-0.252l0.341-0.428l0.088-0.127l0.238-0.303l0.33-0.429l0.05-0.05    l0.276-0.378l0.327-0.429l0,0l0.315-0.429l0.277-0.378l0.052-0.051l0.313-0.453l0.229-0.304l0.088-0.125l0.316-0.454l0.175-0.252    l0.126-0.176l0.303-0.455l0.14-0.201l0.165-0.252l0.302-0.454l0.088-0.126l0.2-0.328l0.305-0.453l0.05-0.076l0.238-0.378    l0.292-0.453l0.01-0.026l0.268-0.428l0.263-0.428l0.024-0.026l0.277-0.479l0.218-0.353l0.06-0.1l0.277-0.479l0.179-0.304    l0.088-0.175l0.277-0.455l0.126-0.252l0.127-0.227l0.263-0.479l0.103-0.176l0.164-0.304l0.25-0.479l0.063-0.1l0.189-0.38    l0.253-0.478l0.024-0.051l0.229-0.429l0.228-0.479l0.011-0.025l0.238-0.479l0.204-0.403l0.038-0.101l0.239-0.479l0.151-0.328    l0.076-0.177l0.225-0.479l0.127-0.277l0.102-0.228l0.214-0.504l0.103-0.201L342.101,406.715z M286.913,454.36    c-3.112-6.807,2.008-13.587,6.468-19.462c1.552-2.067,3.012-3.983,3.77-5.496c1.751-3.806,3.162-8.344,3.843-12.906    c0.594-3.958,0.618-7.941-0.175-11.446c-0.882-3.982-1.096-6.653,0.214-9.024c1.323-2.369,3.808-3.706,8.22-4.865    c9.553-2.496,14.041-0.101,19.6,2.873c2.446,1.312,5.156,2.748,8.711,3.782c2.772,0.808,4.914,1.739,6.576,2.773l0.268,0.177    c2.938-8.546,4.537-17.723,4.537-27.277c0-2.445-0.102-4.891-0.301-7.311c-1.226,0.454-2.345,1.135-3.395,1.765    c-4.537,2.724-8.089,4.866-14.985-2.067c-7.022-7.033-5.078-15.479-3.604-21.831c0.492-2.118,0.906-3.933,0.793-4.815    c-2.018-6.075-10.198-6.428-18.252-6.756c-8.96-0.402-17.822-0.756-21.868-7.991l-0.112-0.228    c-3.73-7.008,1.575-14.016,6.162-20.092c1.552-2.041,3.001-3.982,3.756-5.47l0.947-2.219c-10.086-4.311-21.19-6.681-32.835-6.681    c-9.605,0-18.821,1.613-27.405,4.588c0.014,1.033-0.011,2.118-0.074,3.253v0.05c-0.102,2.042-0.302,4.21-0.579,6.479l-0.014,0.127    c-0.403,4.462,0.354,5.975,1.727,6.1c2.018,0.203,5.268-0.807,8.823-1.891l2.548-0.781c4.475-1.387,17.066-5.293,21.05-2.017    c2.471,2.042,2.607,5.219-1.323,9.983c-2.257,2.747-4.036,4.613-5.433,6.101c-3.871,4.059-3.983,4.185-0.229,15.176    c0.517,1.487,1.436,3.529,2.471,5.849c4.148,9.252,9.995,22.361,3.439,28.94c-1.8,1.815-2.948,2.571-4.032,3.253    c-1.158,0.756-2.232,1.436-4.854,4.915c-8.317,11.017-12.894,10.588-18.969,9.983c-2.559-0.252-5.482-0.529-9.367,0.68    c-1.421,0.429-2.72,1.211-3.892,1.916c-4.538,2.723-8.093,4.867-14.989-2.066c-7.033-7.033-5.078-15.453-3.604-21.832    c0.506-2.193,0.934-4.084,0.769-4.915c-0.415-2.017-1.941-3.429-3.906-4.388c-3.418-1.688-8.083-2.092-11.357-2.117    c-3.19,0-6.078-0.1-8.637-0.378h-0.098c-1.4-0.151-2.724-0.327-3.998-0.579c-1.158,5.57-1.79,11.344-1.79,17.268    c0,14.823,3.857,28.738,10.612,40.839c7.714-1.41,11.848,0.808,16.842,3.48c2.443,1.285,5.142,2.747,8.707,3.781    c11.609,3.378,12.455,8.823,13.21,13.814c0.267,1.79,0.53,3.504,1.853,4.487c2.042,1.513,7.791-0.353,11.448-1.513l2.344-0.731    c4.51-1.411,17.052-5.268,21.011-2.017c2.481,2.042,2.622,5.219-1.313,9.983c-2.257,2.748-4.032,4.613-5.433,6.101    c-2.116,2.219-3.113,3.276-3.074,5.168c2.471,0.202,4.979,0.327,7.514,0.327C272.734,457.209,279.996,456.226,286.913,454.36z     M118.429,200.148v80.317c0,1.688-1.4,3.101-3.102,3.101H78.242c-1.713,0-3.099-1.412-3.099-3.101v-80.317H54.687    c-1.716,0-3.103-1.412-3.103-3.101c0-1.186,0.67-2.219,1.628-2.748l41.493-25.839c1.06-0.656,2.369-0.605,3.352,0.049    l42.43,25.891c1.46,0.883,1.927,2.799,1.032,4.235c-0.579,0.958-1.586,1.487-2.632,1.487L118.429,200.148z M265.249,55.773h0.277    l0.288,0.025h0.291h0.2h0.088h0.291h0.277h0.291h0.126l0.151,0.025h0.288h0.291l0.277,0.025h0.049h0.239l0.291,0.025h0.277    l0.568,0.025l0.288,0.024l0.291,0.025h0.165l0.112,0.025h0.277L271.236,56l0.277,0.025h0.088l0.2,0.025    c20.193,1.588,38.345,10.412,51.856,23.924c14.936,14.949,24.188,35.596,24.188,58.41c0,18.479-6.075,35.546-16.323,49.311    l1.162,0.353c1.513,0.429,3.162,0.655,4.889,0.655c5.219,0,9.946-2.168,13.36-5.646c3.429-3.504,5.549-8.345,5.549-13.715    c0-2.747-0.544-5.344-1.527-7.663c-1.021-2.421-2.533-4.613-4.396-6.403c-0.291-0.303-0.53-0.631-0.695-1.033    c-0.667-1.563,0.077-3.379,1.639-4.033c3.468-1.463,6.43-3.984,8.508-7.16c2.018-3.076,3.189-6.781,3.189-10.765    c0-4.89-1.766-9.327-4.664-12.73c-2.938-3.429-7.058-5.798-11.697-6.454c-0.656-0.075-1.299-0.377-1.789-0.907    c-1.187-1.21-1.158-3.176,0.063-4.361c1.84-1.79,3.342-3.958,4.362-6.403c0.983-2.318,1.523-4.891,1.523-7.639    c0-4.486-1.499-8.646-4.008-11.924c-2.544-3.327-6.163-5.798-10.312-6.857l-0.54-0.201c-1.552-0.73-2.218-2.571-1.488-4.109    c0.604-1.285,1.085-2.672,1.4-4.109c0.302-1.336,0.464-2.771,0.464-4.311c0-5.344-2.131-10.209-5.557-13.688    c-3.418-3.479-8.145-5.646-13.35-5.646c-1.902,0-3.717,0.276-5.408,0.782l-0.225,0.074c-1.828,0.58-3.517,1.438-5.058,2.496    l-0.049,0.051c-1.284,0.907-3.103,0.705-4.134-0.529c-1.601-1.891-3.58-3.429-5.798-4.514l-0.176-0.075    c-2.193-1.008-4.664-1.588-7.25-1.588c-1.299,0-2.534,0.126-3.654,0.378c-1.161,0.252-2.295,0.631-3.379,1.109l-0.429,0.201    c-1.614,0.555-3.376-0.327-3.931-1.94c-1.123-3.253-2.976-6.177-5.345-8.521c-2.13-2.118-4.688-3.781-7.524-4.865    c-2.85,1.084-5.397,2.747-7.527,4.865c-2.38,2.344-4.233,5.268-5.356,8.521l-0.126,0.302c-0.706,1.538-2.548,2.219-4.096,1.513    c-1.084-0.503-2.271-0.907-3.517-1.159c-1.123-0.277-2.358-0.403-3.657-0.403c-2.583,0-5.043,0.58-7.247,1.588    c-2.281,1.06-4.299,2.622-5.938,4.538l-0.035,0.051c-1.021,1.21-2.812,1.462-4.138,0.529c-1.538-1.084-3.264-1.967-5.103-2.547    c-1.751-0.555-3.657-0.856-5.622-0.856c-5.219,0-9.932,2.142-13.361,5.646c-3.415,3.479-5.545,8.345-5.545,13.688    c0,1.539,0.162,2.975,0.453,4.336c0.302,1.337,0.754,2.673,1.337,3.933l0.277,0.706c0.428,1.639-0.583,3.354-2.232,3.756    c-4.148,1.06-7.767,3.53-10.325,6.857c-2.496,3.277-4.008,7.438-4.008,11.924c0,2.723,0.554,5.32,1.526,7.639    c0.997,2.396,2.457,4.538,4.271,6.328c0.53,0.453,0.909,1.109,1.011,1.865c0.225,1.689-0.958,3.252-2.649,3.479    c-4.636,0.656-8.746,3.025-11.697,6.454c-2.899,3.403-4.661,7.841-4.661,12.73c0,3.983,1.183,7.688,3.201,10.765    c2.067,3.176,5.015,5.672,8.468,7.135c0.379,0.15,0.744,0.402,1.06,0.73c1.186,1.211,1.133,3.177-0.088,4.361    c-1.853,1.79-3.366,3.982-4.401,6.403c-0.982,2.319-1.537,4.916-1.537,7.663c0,5.37,2.144,10.211,5.573,13.715    c3.404,3.479,8.142,5.646,13.36,5.646c1.614,0,3.176-0.201,4.612-0.58l0.277-0.075l1.148-0.378    c-10.248-13.739-16.323-30.807-16.323-49.285c0-22.814,9.251-43.461,24.202-58.41c11.507-11.496,26.395-19.639,43.058-22.764    l0.73-0.127l0.053-0.025l0.793-0.125c0.793-0.127,1.576-0.252,2.383-0.378l0.793-0.101h0.077l0.73-0.102l0.808-0.076l0.54-0.075    l0.267-0.024l0.769-0.076h0.035l0.808-0.051l0.214-0.025l0.607-0.05l0.438-0.025l0.368-0.025l0.681-0.024l0.137-0.025l0.821-0.025    h0.099l0.72-0.025l0.34-0.025h0.478h0.593h0.239L265.249,55.773z M399.779,184.418c0,1.714-1.387,3.101-3.089,3.101    c-1.716,0-3.103-1.387-3.103-3.101v-80.317h-20.471c-1.698,0-3.099-1.387-3.099-3.101c0-1.186,0.667-2.193,1.639-2.723    l41.482-25.865c1.07-0.656,2.369-0.58,3.352,0.051l42.44,25.89c1.464,0.907,1.916,2.798,1.035,4.261    c-0.582,0.957-1.604,1.487-2.649,1.487H436.86v120.702c0,1.715-1.386,3.102-3.099,3.102c-1.702,0-3.103-1.387-3.103-3.102V101    c0-1.715,1.4-3.102,3.103-3.102h12.539l-31.512-19.209l-30.842,19.209h12.743c1.702,0,3.089,1.387,3.089,3.102V184.418z     M153.468,376.992c0,1.715-1.386,3.102-3.099,3.102c-1.702,0-3.102-1.387-3.102-3.102c0-32.596,13.234-62.141,34.6-83.518    c21.366-21.354,50.898-34.588,83.505-34.588c32.61,0,62.143,13.234,83.509,34.588c21.365,21.377,34.586,50.922,34.586,83.518    c0,1.715-1.387,3.102-3.099,3.102c-1.702,0-3.103-1.387-3.103-3.102c0-30.906-12.516-58.863-32.771-79.133    c-20.243-20.242-48.229-32.771-79.122-32.771c-30.905,0-58.875,12.529-79.132,32.771    C165.997,318.129,153.468,346.086,153.468,376.992z M122.311,376.992c0,1.715-1.4,3.102-3.103,3.102    c-1.713,0-3.099-1.387-3.099-3.102c0-41.217,16.712-78.527,43.711-105.552c27.013-26.999,64.336-43.713,105.552-43.713    c41.219,0,78.542,16.714,105.541,43.713c27.013,27.024,43.726,64.335,43.726,105.552c0,1.715-1.387,3.102-3.1,3.102    c-1.716,0-3.103-1.387-3.103-3.102c0-39.502-16.007-75.275-41.896-101.165c-25.891-25.89-61.663-41.897-101.169-41.897    c-39.503,0-75.275,16.008-101.165,41.897C138.318,301.717,122.311,337.49,122.311,376.992z M137.384,473.974    c-1.713,0-3.099-1.387-3.099-3.101c0-1.689,1.386-3.101,3.099-3.101h197.63c1.716,0,3.103,1.411,3.103,3.101    c0,1.714-1.387,3.101-3.103,3.101H137.384z M253.11,485.999c-1.702,0-3.103-1.387-3.103-3.101c0-1.715,1.4-3.102,3.103-3.102    h136.761c1.713,0,3.1,1.387,3.1,3.102c0,1.714-1.387,3.101-3.1,3.101H253.11z M403.875,485.999c-1.713,0-3.104-1.387-3.104-3.101    c0-1.715,1.391-3.102,3.104-3.102h17.091c1.716,0,3.103,1.387,3.103,3.102c0,1.714-1.387,3.101-3.103,3.101H403.875z     M129.597,485.646c-1.702,0-3.088-1.412-3.088-3.101c0-1.714,1.386-3.101,3.088-3.101h64.813c1.702,0,3.099,1.387,3.099,3.101    c0,1.688-1.396,3.101-3.099,3.101H129.597z M300.618,70.949l-0.077,0.202l-0.063,0.151l-0.014,0.025l-0.074,0.201l-0.077,0.177    c-1.586,3.856-3.453,7.538-5.559,11.017c-1.513,2.521-3.162,4.941-4.938,7.285v0.025l-0.267,0.328l-0.126,0.176l-0.088,0.102    l-0.049,0.076l-0.127,0.15l-0.141,0.176l-0.126,0.177l-0.049,0.052l-0.077,0.1l-0.138,0.177l-0.14,0.177l-0.123,0.15l-0.014,0.025    l-0.264,0.328l-0.141,0.151l-0.088,0.126l-0.038,0.051l-0.137,0.176l-0.277,0.328l-0.063,0.051l-0.491,0.604h-0.014l-0.127,0.151    c6.619,6.354,14.396,11.546,22.98,15.201c8.634,3.681,18.113,5.799,28.055,6.025l-0.351-1.135l-0.077-0.201l-0.453-1.312    l-0.102-0.227l-0.063-0.202l-0.162-0.428l-0.102-0.252l-0.063-0.177l-0.166-0.429l-0.098-0.252l-0.063-0.177l-0.179-0.429    l-0.112-0.277l-0.354-0.832l-0.063-0.176l-0.175-0.404l-0.127-0.277l-0.063-0.15l-0.189-0.429l-0.127-0.277l-0.049-0.126    l-0.341-0.706l-0.049-0.126l-0.204-0.429l-0.137-0.277l-0.053-0.126l-0.199-0.402l-0.151-0.303l-0.05-0.102l-0.367-0.73    l-0.05-0.102l-0.379-0.706l-0.038-0.101l-0.215-0.402l-0.176-0.328l-0.049-0.076l-0.214-0.403l-0.189-0.327l-0.038-0.051    l-0.215-0.403l-0.2-0.328l-0.028-0.075l-0.225-0.379c-0.379-0.654-0.768-1.285-1.161-1.916l-0.024-0.05    c-3.064-4.891-6.679-9.429-10.777-13.538C313.674,79.143,307.447,74.529,300.618,70.949z" style="fill-rule:evenodd;clip-rule:evenodd;"/></g></g><g id="Layer_1"/></svg>